# xmcd
# 
# Track frame offsets:
#     150
#     14882
#     27837
#     44197
#     59157
#     73987
#     86372
#     103010
#     120230
#     137242
#     147795
#     162307
#     178162
#     193417
#     204520
#     222045
#     235552
#     251100
# 
# Disc length: 3529
# 
# Revision: 3
# Processed by: cddbd v1.5.2PL0 Copyright (c) Steve Scherf et al.
# Submitted via: BonkEnc v1.0.5
# 
DISCID=190dc712
DTITLE=Olivia Newton-John - The Best Of Olivia Newton-John
DYEAR=1998
DGENRE=
TTITLE0=Banks Of The Ohio
TTITLE1=If Not For You
TTITLE2=I Honestly Love You
TTITLE3=What Is Life
TTITLE4=Take Me Home Country Roads
TTITLE5=Long Live Love
TTITLE6=Love Song
TTITLE7=The Air That I Breathe
TTITLE8=Me And Bobby McGee
TTITLE9=Help Me Make It Through The Night
TTITLE10=If You Love Me (Let Me Know)
TTITLE11=Have You Never Been Mellow
TTITLE12=Please Mr. Please
TTITLE13=If
TTITLE14=Angel Of The Morning
TTITLE15=Let Me Be There
TTITLE16=A Little More Love
TTITLE17=Everything I Own
EXTD=
EXTT0=
EXTT1=
EXTT2=
EXTT3=
EXTT4=
EXTT5=
EXTT6=
EXTT7=
EXTT8=
EXTT9=
EXTT10=
EXTT11=
EXTT12=
EXTT13=
EXTT14=
EXTT15=
EXTT16=
EXTT17=
PLAYORDER=
